<svg id="Layer_2" data-name="Layer 2" xmlns="http://www.w3.org/2000/svg" viewBox="0 0 500 500"><circle cx="250" cy="250" r="15.68"/><path fill="#FFF" d="M250,57C143.43,57,57,143.43,57,250s86.4,193,193,193,193-86.4,193-193S356.57,57,250,57Zm0,33.33a159.65,159.65,0,0,1,158.87,144H311.31a63.29,63.29,0,0,0-122.62,0H91.13A159.65,159.65,0,0,1,250,90.36ZM281.76,250A31.76,31.76,0,1,1,250,218.24,31.76,31.76,0,0,1,281.76,250ZM250,409.64a159.65,159.65,0,0,1-158.87-144h97.56a63.29,63.29,0,0,0,122.62,0h97.56A159.65,159.65,0,0,1,250,409.64Z"/></svg>